<svg xmlns="http://www.w3.org/2000/svg" width="359" height="96" viewBox="0 0 359 96" role="img"><title>LOBBOT — CONFLUENCE — logo</title><g transform="translate(0 0) scale(0.75)" fill="#191B18" color="#191B18"><path d="M8 8H31L73 50H120V74H63L21 32H8Z M8 52H80V76H8Z M8 96H21L63 54H120V78H73L31 120H8Z"/></g><path fill="#191B18" transform="translate(116.000 67) scale(0.056000 -0.056000)" d="M75.7825927734375 0V686.2174072265625H215.67462158203125V119.84832763671875H560.6529541015625V0Z"/><path fill="#191B18" transform="translate(148.986 67) scale(0.056000 -0.056000)" d="M393.71759033203125 -12Q285.63055419921875 -12 207.0870361328125 26.663055419921875Q128.54351806640625 65.32611083984375 86.77175903320312 144.38046264648438Q45 223.434814453125 45 343.10870361328125Q45 463.7825927734375 86.77175903320312 542.3369445800781Q128.54351806640625 620.8912963867188 207.0870361328125 659.5543518066406Q285.63055419921875 698.2174072265625 393.71759033203125 698.2174072265625Q502.80462646484375 698.2174072265625 580.9024963378906 659.5543518066406Q659.0003662109375 620.8912963867188 700.7721252441406 542.3369445800781Q742.5438842773438 463.7825927734375 742.5438842773438 343.10870361328125Q742.5438842773438 223.434814453125 700.7721252441406 144.38046264648438Q659.0003662109375 65.32611083984375 580.9024963378906 26.663055419921875Q502.80462646484375 -12 393.71759033203125 -12ZM393.71759033203125 103.97869873046875Q443.97833251953125 103.97869873046875 482.17388916015625 118.59823608398438Q520.3694458007812 133.2177734375 546.4454650878906 161.79379272460938Q572.521484375 190.36981201171875 585.9779663085938 232.34796142578125Q599.4344482421875 274.32611083984375 599.4344482421875 328.93463134765625V355.50018310546875Q599.4344482421875 411 585.9779663085938 453.4237976074219Q572.521484375 495.84759521484375 546.4454650878906 524.4236145019531Q520.3694458007812 552.9996337890625 482.17388916015625 567.6191711425781Q443.97833251953125 582.2387084960938 393.71759033203125 582.2387084960938Q343.45684814453125 582.2387084960938 305.26129150390625 567.6191711425781Q267.06573486328125 552.9996337890625 241.0440673828125 524.4236145019531Q215.02239990234375 495.84759521484375 202.01156616210938 453.4237976074219Q189.000732421875 411 189.000732421875 355.50018310546875V328.93463134765625Q189.000732421875 274.32611083984375 202.01156616210938 232.34796142578125Q215.02239990234375 190.36981201171875 241.0440673828125 161.79379272460938Q267.06573486328125 133.2177734375 305.26129150390625 118.59823608398438Q343.45684814453125 103.97869873046875 393.71759033203125 103.97869873046875Z"/><path fill="#191B18" transform="translate(193.564 67) scale(0.056000 -0.056000)" d="M75.7825927734375 0V686.2174072265625H458.9136962890625Q513.5875854492188 686.2174072265625 557.0332336425781 665.1630554199219Q600.4788818359375 644.1087036132812 625.5875854492188 606.1087036132812Q650.6962890625 568.1087036132812 650.6962890625 517.2174072265625Q650.6962890625 477.02166748046875 635.5875854492188 445.02166748046875Q620.4788818359375 413.02166748046875 594.9245300292969 391.8477783203125Q569.3701782226562 370.67388916015625 537.4788818359375 359.89129638671875V355.89129638671875Q575.261474609375 347.89129638671875 605.2071228027344 325.7174072265625Q635.1527709960938 303.54351806640625 652.261474609375 268.9891662597656Q669.3701782226562 234.434814453125 669.3701782226562 188.3477783203125Q669.3701782226562 125.32611083984375 641.0332336425781 83.434814453125Q612.6962890625 41.54351806640625 565.4680480957031 20.771759033203125Q518.2398071289062 0 459.56591796875 0ZM215.67462158203125 116.32647705078125H436.2611083984375Q475.304443359375 116.32647705078125 500.4456481933594 138.11990356445312Q525.5868530273438 159.913330078125 525.5868530273438 206.174072265625Q525.5868530273438 232.76092529296875 515.0760192871094 252.83694458007812Q504.565185546875 272.9129638671875 483.26092529296875 283.9237976074219Q461.9566650390625 294.93463134765625 429.1307373046875 294.93463134765625H215.67462158203125ZM215.67462158203125 407.5218505859375H419.36981201171875Q447.84796142578125 407.5218505859375 467.3152770996094 418.1413879394531Q486.7825927734375 428.76092529296875 496.8477783203125 447.2174072265625Q506.9129638671875 465.67388916015625 506.9129638671875 488.45648193359375Q506.9129638671875 530.0650024414062 484.3369445800781 550.4671325683594Q461.76092529296875 570.8692626953125 425.60888671875 570.8692626953125H215.67462158203125Z"/><path fill="#191B18" transform="translate(233.998 67) scale(0.056000 -0.056000)" d="M75.7825927734375 0V686.2174072265625H458.9136962890625Q513.5875854492188 686.2174072265625 557.0332336425781 665.1630554199219Q600.4788818359375 644.1087036132812 625.5875854492188 606.1087036132812Q650.6962890625 568.1087036132812 650.6962890625 517.2174072265625Q650.6962890625 477.02166748046875 635.5875854492188 445.02166748046875Q620.4788818359375 413.02166748046875 594.9245300292969 391.8477783203125Q569.3701782226562 370.67388916015625 537.4788818359375 359.89129638671875V355.89129638671875Q575.261474609375 347.89129638671875 605.2071228027344 325.7174072265625Q635.1527709960938 303.54351806640625 652.261474609375 268.9891662597656Q669.3701782226562 234.434814453125 669.3701782226562 188.3477783203125Q669.3701782226562 125.32611083984375 641.0332336425781 83.434814453125Q612.6962890625 41.54351806640625 565.4680480957031 20.771759033203125Q518.2398071289062 0 459.56591796875 0ZM215.67462158203125 116.32647705078125H436.2611083984375Q475.304443359375 116.32647705078125 500.4456481933594 138.11990356445312Q525.5868530273438 159.913330078125 525.5868530273438 206.174072265625Q525.5868530273438 232.76092529296875 515.0760192871094 252.83694458007812Q504.565185546875 272.9129638671875 483.26092529296875 283.9237976074219Q461.9566650390625 294.93463134765625 429.1307373046875 294.93463134765625H215.67462158203125ZM215.67462158203125 407.5218505859375H419.36981201171875Q447.84796142578125 407.5218505859375 467.3152770996094 418.1413879394531Q486.7825927734375 428.76092529296875 496.8477783203125 447.2174072265625Q506.9129638671875 465.67388916015625 506.9129638671875 488.45648193359375Q506.9129638671875 530.0650024414062 484.3369445800781 550.4671325683594Q461.76092529296875 570.8692626953125 425.60888671875 570.8692626953125H215.67462158203125Z"/><path fill="#191B18" transform="translate(274.432 67) scale(0.056000 -0.056000)" d="M393.71759033203125 -12Q285.63055419921875 -12 207.0870361328125 26.663055419921875Q128.54351806640625 65.32611083984375 86.77175903320312 144.38046264648438Q45 223.434814453125 45 343.10870361328125Q45 463.7825927734375 86.77175903320312 542.3369445800781Q128.54351806640625 620.8912963867188 207.0870361328125 659.5543518066406Q285.63055419921875 698.2174072265625 393.71759033203125 698.2174072265625Q502.80462646484375 698.2174072265625 580.9024963378906 659.5543518066406Q659.0003662109375 620.8912963867188 700.7721252441406 542.3369445800781Q742.5438842773438 463.7825927734375 742.5438842773438 343.10870361328125Q742.5438842773438 223.434814453125 700.7721252441406 144.38046264648438Q659.0003662109375 65.32611083984375 580.9024963378906 26.663055419921875Q502.80462646484375 -12 393.71759033203125 -12ZM393.71759033203125 103.97869873046875Q443.97833251953125 103.97869873046875 482.17388916015625 118.59823608398438Q520.3694458007812 133.2177734375 546.4454650878906 161.79379272460938Q572.521484375 190.36981201171875 585.9779663085938 232.34796142578125Q599.4344482421875 274.32611083984375 599.4344482421875 328.93463134765625V355.50018310546875Q599.4344482421875 411 585.9779663085938 453.4237976074219Q572.521484375 495.84759521484375 546.4454650878906 524.4236145019531Q520.3694458007812 552.9996337890625 482.17388916015625 567.6191711425781Q443.97833251953125 582.2387084960938 393.71759033203125 582.2387084960938Q343.45684814453125 582.2387084960938 305.26129150390625 567.6191711425781Q267.06573486328125 552.9996337890625 241.0440673828125 524.4236145019531Q215.02239990234375 495.84759521484375 202.01156616210938 453.4237976074219Q189.000732421875 411 189.000732421875 355.50018310546875V328.93463134765625Q189.000732421875 274.32611083984375 202.01156616210938 232.34796142578125Q215.02239990234375 190.36981201171875 241.0440673828125 161.79379272460938Q267.06573486328125 133.2177734375 305.26129150390625 118.59823608398438Q343.45684814453125 103.97869873046875 393.71759033203125 103.97869873046875Z"/><path fill="#191B18" transform="translate(319.010 67) scale(0.056000 -0.056000)" d="M244.54351806640625 0V567.2603759765625H24.7825927734375V686.2174072265625H604.9790649414062V567.2603759765625H384.435546875V0Z"/></svg>